<svg enable-background="new 0 0 180 170" viewBox="0 0 180 170" xmlns="http://www.w3.org/2000/svg"><g fill="none" stroke-miterlimit="10"><path d="m106.8 47.6 28-10.3 3.6 9.9" stroke="#19ad87" stroke-linecap="round" stroke-linejoin="round" stroke-width="4"/><path d="m24.6 48h130.9v91h-130.9z" stroke="#4c626e" stroke-width="5"/><g stroke="#19ad87" stroke-linecap="round" stroke-linejoin="round" stroke-width="4"><path d="m36 59.4h108.1v68.3h-108.1z"/><path d="m53 59.4c0 9.4-7.6 17.1-17.1 17.1"/><path d="m141.2 76.5c-9.4 0-17.1-7.6-17.1-17.1"/><path d="m124.1 127.7c0-9.4 7.6-17.1 17.1-17.1"/><path d="m36 110.6c9.4 0 17.1 7.6 17.1 17.1"/></g><path d="m75.8 48 65.8-25.3 8.9 24.6" stroke="#4c626e" stroke-width="5"/><path d="m96.2 83.1s-1.9-3.9-6.6-4c-7.4-.1-10.6 10.5-1.9 13.5 13.6 4.7 8.7 15.6 2 15.7-5.6.1-7.8-3.8-8.1-4.3" stroke="#19ad87" stroke-linecap="round" stroke-linejoin="round" stroke-width="4"/><path d="m89.3 74.4.2 38.8" stroke="#19ad87" stroke-linecap="round" stroke-linejoin="round" stroke-width="4"/></g></svg>