<svg enable-background="new 0 0 93.2 114.8" viewBox="0 0 93.2 114.8" xmlns="http://www.w3.org/2000/svg"><circle cx="46.6" cy="61.1" fill="none" r="44.6"/><path d="m46.6 107.7c-25.7 0-46.6-20.9-46.6-46.6s20.9-46.6 46.6-46.6 46.6 20.9 46.6 46.6-20.9 46.6-46.6 46.6zm0-89.3c-23.6 0-42.7 19.2-42.7 42.7s19.2 42.7 42.7 42.7 42.7-19.2 42.7-42.7-19.2-42.7-42.7-42.7z" fill="#cdcccc"/><circle cx="46.6" cy="61.1" fill="none" r="37.9"/><path d="m47.6 1.9h-1.5c-3.2 0-5.8 2.6-5.8 5.8v4.1h13.1v-4.2c0-3.2-2.6-5.7-5.8-5.7z" fill="none"/><path d="m55.3 13.6h-16.8v-7.7c0-3.3 2.6-5.9 5.9-5.9h5c3.3 0 5.9 2.6 5.9 5.9zm-13.1-3.8h9.4v-3.9c0-1.2-1-2.2-2.2-2.2h-5c-1.2 0-2.2 1-2.2 2.2z" fill="#cdcccc"/><path d="m43.6 11.7h6.4v4.8h-6.4z" fill="#cdcccc"/><path d="m74.4 14.4-1.4-.8c-2.8-1.6-6.3-.6-7.9 2.1l-2 3.5 11.3 6.5 2-3.5c1.7-2.7.7-6.2-2-7.8z" fill="none"/><path d="m75.1 28.3-14.6-8.4 3.8-6.6c1.1-1.8 3-3 5.1-3 1 0 2.1.3 2.9.8l4.3 2.5c2.8 1.6 3.8 5.2 2.2 8.1zm-9.5-9.7 8.1 4.7 2-3.4c.6-1 .2-2.4-.8-3l-4.3-2.5c-.3-.2-.7-.3-1.1-.3-.8 0-1.5.4-1.9 1.1z" fill="#cdcccc"/><path d="m19 13.9 1.3-.8c2.8-1.6 6.3-.6 7.9 2.1l2 3.5-11.3 6.5-2-3.5c-1.6-2.7-.7-6.2 2.1-7.8z" fill="none"/><path d="m18.2 27.8-3.8-6.6c-.8-1.4-1-3-.6-4.5s1.4-2.8 2.8-3.6l4.3-2.5c.9-.5 1.9-.8 2.9-.8 2.1 0 4.1 1.1 5.1 3l3.8 6.6zm5.6-14.2c-.4 0-.8.1-1.1.3l-4.3 2.5c-.5.3-.9.8-1 1.3-.2.6-.1 1.2.2 1.7l2 3.4 8.1-4.7-2-3.4c-.3-.7-1.1-1.1-1.9-1.1z" fill="#cdcccc"/><g fill="none" stroke-miterlimit="10"><circle cx="46.6" cy="61.3" r="11.2" stroke="#1cae88" stroke-linecap="round" stroke-linejoin="round"/><circle cx="46.6" cy="61.3" r="38.2" stroke="#1cae88" stroke-linecap="round" stroke-linejoin="round"/><circle cx="46.6" cy="61.3" r="4.1" stroke="#1cae88" stroke-linecap="round" stroke-linejoin="round"/><path d="m84.7 98.4c-21.1 21.1-55.4 21.1-76.5 0" stroke="#cdcccc"/><path d="m14.4 60.4c0-17.7 14.3-32 32-32" stroke="#cdcccc"/><path d="m49.2 58.2 20.2-19.5" stroke="#1cae88" stroke-linecap="round" stroke-linejoin="round"/></g></svg>