<svg enable-background="new 0 0 98.3 122.2" viewBox="0 0 98.3 122.2" xmlns="http://www.w3.org/2000/svg"><g fill="none" stroke-miterlimit="10"><path d="m93.5 54-6-1.1c-1.1-4.5-2.8-9-5.4-12.7l3.4-5c1.3-1.7 1.1-4.1-.4-5.6l-1.9-1.9-1.9-1.9c-1.5-1.5-3.9-1.7-5.6-.4l-5 3.4c-3.9-2.6-8.2-4.3-12.7-5.4l-1.1-6c-.4-2.2-2.2-3.4-4.3-3.4h-3-2.8c-2.2 0-3.9 1.5-4.3 3.4l-1.1 6c-4.7.9-9 2.6-12.7 5.2l-5-3.4c-1.7-1.3-4.1-1.1-5.6.4l-2.1 1.9-2 2.1c-1.5 1.5-1.7 3.9-.4 5.6l3.4 5c-2.6 3.9-4.3 8.2-5.4 12.7l-6 1.1c-2.2.4-3.4 2.2-3.4 4.3v2.8 2.8c0 2.2 1.5 3.9 3.4 4.3l6 1.1c1.1 4.7 2.8 9 5.4 12.7l-3.4 5c-1.3 1.7-1.1 4.1.4 5.6l1.9 1.9 1.9 1.9c1.5 1.5 3.9 1.7 5.6.4l5-3.4c3.9 2.6 8.2 4.3 12.7 5.4l1.1 6c.4 2.2 2.2 3.4 4.3 3.4h3 2.8c2.2 0 3.9-1.5 4.3-3.4l1.1-6c4.5-1.1 9-2.8 12.7-5.4l5 3.4c1.7 1.3 4.1 1.1 5.6-.4l1.9-1.9 1.9-1.9c1.5-1.5 1.7-3.9.4-5.6l-3.4-5c2.6-3.9 4.3-8.2 5.4-12.7l6-1.1c2.2-.4 3.4-2.2 3.4-4.3v-2.8-2.8c.4-2.2-1.2-3.9-3.1-4.3z" stroke="#cdcccc" stroke-width="4"/><circle cx="49.5" cy="61.1" r="17.1" stroke="#1dae88"/><circle cx="49.5" cy="61.1" r="27.2" stroke="#cdcccc"/></g></svg>