<svg enable-background="new 0 0 180 170" viewBox="0 0 180 170" xmlns="http://www.w3.org/2000/svg"><g fill="none" stroke-miterlimit="10"><g stroke="#4c616d" stroke-width="5"><path d="m148.2 149h-116.4c-3.2 0-5.8-2.6-5.8-5.8v-116.4c0-3.2 2.6-5.8 5.8-5.8h116.4c3.2 0 5.8 2.6 5.8 5.8v116.4c0 3.2-2.6 5.8-5.8 5.8z"/><circle cx="37.6" cy="32.6" r="1.5"/><circle cx="49.3" cy="32.6" r="1.5"/><circle cx="60.9" cy="32.6" r="1.5"/><path d="m26 44.3h128"/></g><path d="m104.5 122.8c9.6 0 17.5-7.9 17.5-17.5 0-5.2-2.3-10.2-6.1-13.4.3-1.2.3-2.6.3-4.1 0-11.3-9-20.4-20.4-20.4s-20.4 9-20.4 20.4v.3c-.9-.3-2-.3-2.9-.3-9.6 0-17.5 7.9-17.5 17.5s7.9 17.5 17.5 17.5z" stroke="#1cae88" stroke-linecap="round" stroke-linejoin="round" stroke-width="4"/></g></svg>