<svg enable-background="new 0 0 180 170" viewBox="0 0 180 170" xmlns="http://www.w3.org/2000/svg"><g fill="none" stroke-miterlimit="10"><g stroke="#4c626e" stroke-width="5"><path d="m90 22.7v124.6"/><path d="m90 56.7h-53.8"/><path d="m143.8 113.3h-107.6"/><path d="m90.4 147.3c-20.5-13.2-34-36.1-34-62.3s13.6-49.1 34-62.3"/><path d="m103.1 24.1c-4.2-.9-8.6-1.4-13.1-1.4-.8 0-1.6 0-2.4.1 3.4 2.2 6.6 4.7 9.5 7.3"/><path d="m87.6 147.2c.8 0 1.6.1 2.4.1 34.4 0 62.3-27.9 62.3-62.3"/><path d="m97.1 30.1c-3-2.7-6.2-5.2-9.5-7.3-33.3 1.2-59.9 28.6-59.9 62.2s26.6 61 59.9 62.2c15-9.6 26.2-24.5 31.1-42.1"/></g><path d="m150.9 48.6c0 19.5-25.6 43.2-25.5 51.6 0-8.3-25.5-32-25.5-51.6 0-14.1 11.4-25.5 25.5-25.5s25.5 11.5 25.5 25.5z" stroke="#19ad87" stroke-linecap="round" stroke-linejoin="round" stroke-width="4"/><circle cx="125.4" cy="49.2" r="11.3" stroke="#19ad87" stroke-linecap="round" stroke-linejoin="round" stroke-width="4"/></g></svg>