<svg enable-background="new 0 0 155.6 115" viewBox="0 0 155.6 115" xmlns="http://www.w3.org/2000/svg"><g stroke-miterlimit="10"><g fill="none"><path d="m136.27712 30.10339c0-2.8-2.4-4.9-5.3-4.9h-100.200001c-2.9 0-5.3 2-5.3 4.9v73.1h110.700001v-73.1z" stroke="#cdcccc" stroke-width="3"/><path d="m15.977119 103.20339v5.3c0 2.8 3.9 5.1 7.1 5.1h115.400001c3.3 0 6.2-2.2 6.2-5.1v-5.3z" stroke="#cdcccc" stroke-width="3"/><path d="m32.077118 31.303389h97v64.400002h-97z" stroke="#cdcccc"/><path d="m74.677116 108.90339h12.800003" stroke="#cdcccc" stroke-width="2"/><path d="m8.4 86 31.1-19 29.4 13.9 36.2-24.8" stroke="#cdcccc" stroke-width="2" transform="translate(23.877119 -7.79661)"/></g><circle cx="63.177116" cy="60.503391" fill="#fff" r="4.3" stroke="#1dae88"/><circle cx="93.577118" cy="72.603394" fill="#fff" r="4.3" stroke="#1dae88"/><path d="m69.8 55.2v11.4h17.7l2.3 4 2.4-4h17.3v-11.4z" fill="#fff" stroke="#1dae88" transform="translate(23.877119 -7.79661)"/><path d="m97.377121 51.203388h12.399999" fill="none" opacity=".2" stroke="#514f4f" stroke-linejoin="round" stroke-width="2"/><path d="m97.377121 55.403389h32.199999" fill="none" opacity=".2" stroke="#514f4f" stroke-linejoin="round" stroke-width="2"/><path d="m45.2 25.7v11.4h17.8l2.4 4 2.3-4h17.2v-11.4z" fill="#fff" stroke="#1dae88" transform="translate(23.877119 -7.79661)"/><path d="m104.97712 25.503389h-12.299996" fill="none" opacity=".2" stroke="#514f4f" stroke-linejoin="round" stroke-width="2"/><path d="m104.97712 21.20339h-32.199998" fill="none" opacity=".2" stroke="#514f4f" stroke-linejoin="round" stroke-width="2"/><path d="m61.2 95.4v-11.3h-17.8l-2.4-4.1-2.3 4.1h-17.2v11.3z" fill="#fff" stroke="#1dae88" transform="translate(23.877119 -7.79661)"/><path d="m49.177116 80.103394h12.3" fill="none" opacity=".2" stroke="#514f4f" stroke-linejoin="round" stroke-width="2"/><path d="m49.177116 84.303391h32.200005" fill="none" opacity=".2" stroke="#514f4f" stroke-linejoin="round" stroke-width="2"/><path d="m4.4 46.7v11.3h17l3 5.1 2.9-5.1h16.4v-11.3z" fill="#fff" stroke="#1dae88" transform="translate(23.877119 -7.79661)"/><path d="m31.677118 42.703388h12.699999" fill="none" opacity=".2" stroke="#514f4f" stroke-linejoin="round" stroke-width="2"/><path d="m31.677118 46.503387h32.600004" fill="none" opacity=".2" stroke="#514f4f" stroke-linejoin="round" stroke-width="2"/></g></svg>