<svg enable-background="new 0 0 89.8 122.2" viewBox="0 0 89.8 122.2" xmlns="http://www.w3.org/2000/svg"><g stroke-miterlimit="10"><g fill="none"><path d="m76.5 113.6h-63.2c-3.6 0-6.5-2.9-6.5-6.5v-92c0-3.6 2.9-6.5 6.5-6.5h63.2c3.6 0 6.5 2.9 6.5 6.5v91.9c0 3.7-2.9 6.6-6.5 6.6z" stroke="#cdcccc" stroke-width="4"/><path d="m13.8 19h62.1v79.1h-62.1z" stroke="#cdcccc"/><circle cx="44.9" cy="104.7" r="3.9" stroke="#cdcccc"/><path d="m13.7 67.8 21.4-13 20.1 9.6 24.8-17" stroke="#cdcccc" stroke-width="2"/></g><circle cx="34.9" cy="55.7" fill="#fff" r="2.9" stroke="#1dae88"/><circle cx="55.7" cy="64" fill="#fff" r="2.9" stroke="#1dae88"/><path d="m83 46.7h-27.2v7.8h12.1l1.6 2.8 1.6-2.8h11.9z" fill="#fff" stroke="#1dae88"/><path d="m58.4 49.3h8.4" fill="none" opacity=".2" stroke="#514f4f" stroke-linejoin="round" stroke-width="2"/><path d="m58.4 52.2h22" fill="none" opacity=".2" stroke="#514f4f" stroke-linejoin="round" stroke-width="2"/><path d="m66.2 26.5h-27.3v7.8h12.3l1.6 2.8 1.6-2.8h11.8z" fill="#fff" stroke="#1dae88"/><path d="m63.6 31.7h-8.5" fill="none" opacity=".2" stroke="#514f4f" stroke-linejoin="round" stroke-width="2"/><path d="m63.6 28.8h-22.1" fill="none" opacity=".2" stroke="#514f4f" stroke-linejoin="round" stroke-width="2"/><path d="m22.7 74.3h27.2v-7.8h-12.2l-1.6-2.8-1.6 2.8h-11.8z" fill="#fff" stroke="#1dae88"/><path d="m25.3 69.1h8.4" fill="none" opacity=".2" stroke="#514f4f" stroke-linejoin="round" stroke-width="2"/><path d="m25.3 72h22.1" fill="none" opacity=".2" stroke="#514f4f" stroke-linejoin="round" stroke-width="2"/><path d="m37.9 40.9h-26.9v7.8h11.7l2 3.4 2-3.4h11.2z" fill="#fff" stroke="#1dae88"/><path d="m13.3 43.5h8.8" fill="none" opacity=".2" stroke="#514f4f" stroke-linejoin="round" stroke-width="2"/><path d="m13.3 46.1h22.4" fill="none" opacity=".2" stroke="#514f4f" stroke-linejoin="round" stroke-width="2"/><path d="m41.6 14.7h6.6" fill="none" stroke="#cdcccc" stroke-linecap="round" stroke-width="2"/></g></svg>